<?xml version="1.0" encoding="UTF-8" standalone="no"?>
<!-- Generator: Adobe Illustrator 27.5.0, SVG Export Plug-In . SVG Version: 6.00 Build 0)  -->

<svg
   version="1.1"
   id="Golden_Ratio"
   x="0px"
   y="0px"
   viewBox="0 0 112943.6 92747.703"
   xml:space="preserve"
   sodipodi:docname="1176023_1605.svg"
   inkscape:export-filename="1176023_1605.png"
   inkscape:export-xdpi="197.75"
   inkscape:export-ydpi="197.75"
   width="112943.6"
   height="92747.703"
   xmlns:inkscape="http://www.inkscape.org/namespaces/inkscape"
   xmlns:sodipodi="http://sodipodi.sourceforge.net/DTD/sodipodi-0.dtd"
   xmlns="http://www.w3.org/2000/svg"
   xmlns:svg="http://www.w3.org/2000/svg"><defs
   id="defs12" /><sodipodi:namedview
   id="namedview12"
   pagecolor="#ffffff"
   bordercolor="#000000"
   borderopacity="0.25"
   inkscape:showpageshadow="2"
   inkscape:pageopacity="0.0"
   inkscape:pagecheckerboard="0"
   inkscape:deskcolor="#d1d1d1" />






<g
   inkscape:groupmode="layer"
   id="layer4"
   inkscape:label="VECTOR"
   transform="translate(-101177.28,-206994.2)"><path
     style="opacity:1;fill:#151515;fill-opacity:1;stroke:#070707;stroke-width:0.659836;stroke-opacity:1"
     d="m 145.61286,373.98611 c -6.15084,-1.00883 -11.82863,-4.73921 -15.13161,-9.94167 -2.55656,-4.0268 -3.44876,-7.12266 -3.44876,-11.96703 0,-6.5026 1.94147,-11.1577 6.60649,-15.84058 2.83443,-2.84526 5.9904,-4.56785 11.04508,-6.02861 2.24351,-0.64836 3.36274,-1.54265 4.36577,-3.48837 1.34779,-2.61449 0.37116,-6.64678 -1.988,-8.208 -0.5921,-0.39183 -1.88878,-0.91025 -2.8815,-1.15203 -2.74727,-0.66911 -7.17354,-2.92832 -9.21401,-4.70291 -3.54036,-3.07903 -6.31606,-7.40732 -7.52495,-11.73406 -0.45403,-1.625 -2.21704,-9.44785 3.15912,-17.64725 4.67771,-7.13415 10.91622,-10.415 19.49952,-9.40156 4.8192,0.56901 6.53698,1.60194 6.19285,2.66683 -0.30712,0.95038 -1.1594,1.00682 -3.6605,0.20199 -1.96874,-0.63352 -3.61739,-0.93979 -5.5005,-1.00251 -2.74724,0.007 -3.74634,0.12917 -5.3489,0.65468 -5.39094,1.76778 -8.27374,5.53988 -10.09401,9.94487 -1.08978,2.63724 -1.59694,5.03674 -1.76277,8.40505 -0.28273,5.74271 1.67067,10.75711 5.81923,14.93803 2.05562,2.07166 2.79769,2.61109 5.08158,3.6939 4.60798,2.1847 8.68004,2.59667 13.4604,1.36181 1.24704,-0.32214 4.36375,-1.82487 5.77105,-2.78253 2.46552,-1.67779 5.11072,-4.93749 6.5252,-8.04106 1.45842,-3.2 1.92674,-5.6306 1.76024,-9.13571 -0.17332,-3.64869 -2.29522,-8.32025 -3.96151,-13.41136 -1.61875,-4.94586 -1.68907,-4.88908 -1.69384,-7.13016 -0.0228,-10.00786 10.41721,-14.76995 12.30825,-15.09417 1.41775,-0.24307 2.38503,0.20137 1.92922,0.66485 -0.93586,0.9516 -1.2416,2.11817 -2.07081,1.99709 -3.63047,-0.5301 -8.51544,5.59658 -9.27707,7.85419 -0.38551,1.14272 -0.48671,1.65562 -0.47988,2.85297 0.008,1.4044 0.054,4.61511 1.76374,7.92457 3.7029,6.73071 5.75388,14.01941 3.66148,21.4708 -0.87256,3.13435 -3.70345,7.71173 -6.1228,9.90023 -1.28193,1.15961 -3.39653,2.6534 -5.01634,3.54364 -1.40135,0.77018 -5.37871,2.18054 -6.14936,2.18054 -0.7177,0 -1.71017,1.05762 -1.71017,1.82245 0,0.37093 0.18672,1.56211 0.41495,2.64707 0.38561,1.83312 0.37603,2.12486 -0.13544,4.12471 -0.49826,1.94816 -0.51042,2.22941 -0.12832,2.9683 0.25114,0.48566 0.73355,0.88657 1.19115,0.98991 5.26578,1.18922 8.64124,2.96167 12.09327,6.3502 3.91224,3.84028 6.55236,10.02457 6.55236,15.34845 0,11.29602 -8.24449,20.7243 -19.50682,22.30773 -2.6178,0.36805 -3.60639,0.35177 -6.39309,-0.10529 z m 9.52514,-3.03762 c 2.97691,-1.05487 4.94164,-2.31394 7.35413,-4.71283 2.48567,-2.47164 3.69878,-4.41597 4.86348,-7.795 1.67202,-4.85085 1.35268,-10.05143 -0.91686,-14.93179 -1.42564,-3.06564 -3.17141,-5.27842 -5.67834,-7.19736 -8.0994,-6.19969 -18.50609,-5.30469 -25.50889,2.19384 -3.15157,3.37467 -5.37807,8.81048 -5.39773,13.17807 -0.024,5.32263 2.15152,10.73366 5.80691,14.44343 2.6845,2.72444 5.12692,4.16856 8.82608,5.21858 2.7601,0.78346 7.85595,0.59356 10.65122,-0.39694 z"
     id="path22"
     sodipodi:nodetypes="sssssssssssssscsssssssssscssssssssssssssssssssssssssssss"
     inkscape:export-filename="JO.png"
     inkscape:export-xdpi="536.27118"
     inkscape:export-ydpi="536.27118" /></g><g
   inkscape:groupmode="layer"
   id="layer5"
   inkscape:label="name"
   transform="translate(-101177.28,-206994.2)"><path
     id="path1"
     style="fill:#151515;fill-opacity:1;stroke:#070707;stroke-width:0.352722;stroke-opacity:1"
     d="m 181.63867,282.20312 c -0.12824,0.0534 -2.57079,10.10999 -2.91406,11.99805 -0.0683,0.37553 -0.592,2.64387 -1.16406,5.04102 -0.92037,3.85668 -0.98091,4.37934 -0.51953,4.53711 0.28677,0.0981 0.66568,0.0327 0.84179,-0.14649 0.17619,-0.17908 0.48644,-1.08584 0.68946,-2.01367 2.09409,-9.56891 3.51826,-15.65076 3.68164,-15.71875 0.10906,-0.0454 0.75505,1.02588 1.43359,2.38086 0.67856,1.35499 1.51881,2.9991 1.86719,3.6543 0.34837,0.65521 1.54631,2.94079 2.66406,5.07812 3.7412,7.15374 3.53071,6.84609 4.55859,6.62891 0.54323,-0.11481 0.59747,0.0111 -2.67773,-6.25 -0.61933,-1.18394 -1.64074,-3.09942 -2.26953,-4.25781 -0.62879,-1.15846 -2.10485,-3.94823 -3.28125,-6.19922 -2.10152,-4.02131 -2.61501,-4.85519 -2.91016,-4.73243 z m 12.64258,0.0977 c -0.0664,-0.0101 -0.13924,-0.007 -0.21875,0.008 -0.51582,0.099 -0.50084,0.2108 1.77344,14.48047 0.5984,3.75475 1.20655,6.86644 1.35156,6.91602 0.14498,0.0496 0.40478,-0.0541 0.57812,-0.23047 0.25647,-0.26078 -2.48747,-18.81165 -3.06835,-20.74414 -0.0769,-0.25552 -0.21688,-0.39945 -0.41602,-0.42969 z m 4.14063,0.14063 c -0.0293,0.003 -0.0488,0.0161 -0.0586,0.0391 -0.0786,0.18388 1.28416,8.83458 2.31641,14.70508 0.36086,2.05221 0.71759,4.24308 0.79297,4.86718 0.0754,0.62411 0.16058,1.1425 0.18945,1.15235 0.0288,0.01 0.27589,0.0166 0.55078,0.0137 0.27491,-0.003 0.54118,-0.1022 0.5918,-0.2207 0.0748,-0.17498 -1.82542,-12.04276 -2.60157,-16.2461 l -0.19921,-1.08398 0.79492,1.23633 c 1.90746,1.86034 1.13754,0.86357 3.41992,3.26172 0.34224,0.0151 0.6505,-0.0516 0.68555,-0.14844 0.0752,-0.20819 -5.46545,-6.89525 -6.06055,-7.375 -0.16889,-0.13617 -0.33395,-0.21081 -0.42187,-0.20117 z m 10.95898,0.29687 c -0.11657,-0.0115 -0.24889,-0.008 -0.36914,0.0156 -0.32318,0.0627 -0.20685,1.40846 0.44336,5.15234 0.48389,2.78628 1.13447,6.55494 1.44726,8.375 l 0.56836,3.30859 -0.79687,-1.02734 c -2.01139,-2.59312 -2.5171,-2.99929 -3.03505,-2.45208 -0.097,0.10253 1.37258,2.27761 1.74013,2.73333 0.36755,0.4557 1.12172,1.72858 1.96484,2.58008 0.70786,0.7149 1.23835,2.06578 2.05504,2.10953 0.28119,0.0151 -3.56335,-20.58436 -3.74449,-20.715 -0.0566,-0.0408 -0.15688,-0.0686 -0.27344,-0.0801 z m -26.29492,14.61719 c -0.0683,-0.005 -0.13974,-0.002 -0.21875,0.008 -0.66538,0.0833 -0.63381,0.24228 0.625,3.10938 0.89264,2.03298 1.51235,3.06981 1.89453,3.16601 0.31242,0.0787 0.62402,0.0133 0.6914,-0.14453 0.0675,-0.15782 -0.46952,-1.62086 -1.19335,-3.25195 -1.03802,-2.33894 -1.32104,-2.84884 -1.79883,-2.88672 z m -6.38867,41.17383 c -1.17741,0.0275 -1.8951,0.32373 -1.43946,0.87304 0.1085,0.13068 1.07815,0.26087 2.15625,0.28907 3.53272,0.0925 6.047,1.70654 7.46875,4.79687 0.8916,1.93799 0.93183,3.73852 0.12891,5.61719 -0.67539,1.58021 -0.71851,1.62285 -2.28516,2.17578 -0.87839,0.31002 -2.29359,0.54051 -3.14453,0.51367 l -1.54687,-0.0488 0.22851,1.15821 c 0.12523,0.63604 0.3964,2.08405 0.60352,3.21875 0.2071,1.13471 0.39762,2.07262 0.42187,2.08398 0.0243,0.0113 0.54297,0.19897 0.54297,0.0156 0,-0.18347 0.54186,-0.10185 0.5918,-0.21875 0.05,-0.11681 -0.1485,-1.31168 -0.43945,-2.65625 l -0.5293,-2.44532 1.35742,-0.043 c 1.95562,-0.0612 2.20159,-0.11929 3.57812,-0.85743 1.10708,-0.59369 1.32196,-0.85035 1.9629,-2.35156 0.92183,-2.15983 0.74101,-4.42356 -0.55274,-6.92773 -1.19839,-2.31963 -2.56385,-3.55942 -4.9043,-4.45118 -1.38476,-0.52764 -3.02187,-0.76965 -4.19921,-0.74218 z m 21.59375,0.0234 c -0.13523,0.0146 -0.2994,0.0517 -0.50782,0.10547 -1.1894,0.30686 1.99013,1.57917 0.91211,1.09961 -0.35347,-0.15723 0.46093,-0.1848 0.30469,-0.61719 -0.17253,-0.47738 -0.3033,-0.63166 -0.70898,-0.58789 z m -8.11524,0.0137 c -0.76481,0.0139 -1.3403,0.0493 -1.52148,0.11132 -0.21712,0.0743 -0.27185,0.28313 -0.14453,0.54883 0.16283,0.33984 0.61914,0.43482 2.20507,0.46289 1.09952,0.0195 2.13372,0.0823 2.29883,0.13867 0.26714,0.0913 0.89764,2.64578 3.88477,15.74805 0.59131,2.59365 0.93243,3.52522 1.29297,3.52149 0.26957,-0.003 0.51479,-0.20817 0.54492,-0.45508 0.0301,-0.24693 -0.86011,-4.41758 -1.97852,-9.26758 -1.11843,-4.85001 -2.06331,-8.98422 -2.10156,-9.1875 -0.0442,-0.23478 0.34891,-0.40219 1.07813,-0.46094 1.22795,-0.0989 1.56084,-0.38076 0.99609,-0.84375 -0.25152,-0.20621 -4.26025,-0.35822 -6.55469,-0.3164 z m 12.73047,0.0293 c -0.0893,0.006 -0.20454,0.0361 -0.32422,0.0859 -0.59016,0.24562 3.99283,19.97566 4.69922,20.23047 0.26233,0.0946 0.50081,0.11427 0.53125,0.043 0.0463,-0.10828 -4.56204,-19.86807 -4.73633,-20.3086 -0.0158,-0.0399 -0.0806,-0.0573 -0.16992,-0.0508 z m 43.23633,0.16016 c -0.26312,0.003 -0.47863,0.15682 -0.48047,0.34375 -0.006,0.51891 3.87068,14.54323 4.0332,14.59375 0.0784,0.0242 0.35044,0.005 0.60547,-0.0449 0.35802,-0.0694 0.30639,-0.63138 -0.22851,-2.4668 -0.38107,-1.30751 -1.31381,-4.6396 -2.07227,-7.4043 -0.99341,-3.62104 -1.51279,-5.02504 -1.85742,-5.02148 z m -29.00196,0.043 c -1.45199,-0.0515 -2.85844,0.16248 -4.08593,0.66211 -1.89129,0.76983 -2.70122,1.56263 -3.76758,3.68359 -0.90581,1.80161 -0.95287,2.03972 -0.75195,3.89649 0.63745,5.89113 6.97265,10.28906 6.97265,10.28906 l 4.7168,1.47656 c 0,0 0.71416,-0.10689 0.58789,-0.70508 -0.0669,-0.31672 -0.39666,-0.43439 -1.61133,-0.57812 -5.47291,-0.64765 -10.75705,-7.97803 -9.26953,-12.85938 0.58887,-1.93237 1.71891,-3.22163 3.58008,-4.08008 3.00999,-1.38828 7.44035,-0.68815 10.40234,1.64258 0.84076,0.66155 1.54139,1.04386 1.75,0.95703 0.6308,-0.26252 0.23764,-0.79647 -1.47656,-2.00781 -2.07682,-1.46761 -4.62678,-2.29119 -7.04688,-2.37695 z m 18.39063,0.0742 c -0.33434,-0.11191 -0.52036,0.80648 -0.70508,3.10937 -0.55905,6.97004 -1.01029,12.26058 -1.0664,12.50391 -0.034,0.14789 -0.15047,1.1199 -0.25782,2.16015 -0.14234,1.38108 -0.0679,1.93405 0.27344,2.05079 0.25716,0.088 0.72656,-0.15913 0.72656,-0.0215 0,0.13766 0.41195,-2.19431 0.59961,-4.6543 0.64813,-8.49617 0.94395,-11.77244 1.06836,-11.82421 0.13632,-0.0567 1.25566,1.70224 5.00196,7.86132 2.20255,3.62128 4.56916,7.45621 5.14257,8.33203 0.23014,0.35154 1.18848,0.44062 1.32422,0.12305 0.0455,-0.10627 -1.1088,-2.07842 -2.5664,-4.38281 -1.45764,-2.30439 -2.73725,-4.36087 -2.84375,-4.57031 -0.10643,-0.20945 -1.32784,-2.20139 -2.7129,-4.42578 -2.98286,-4.79074 -3.0853,-4.95492 -3.5957,-5.81836 -0.14963,-0.25311 -0.27722,-0.40606 -0.38867,-0.44336 z m 22.70508,0.004 c -0.2578,0 -0.50177,0.0458 -0.72461,0.10547 -1.9237,0.51505 -2.46022,2.06711 -1.52734,4.42383 0.57466,1.45196 1.4467,2.32232 4.55468,4.53906 9.70663,6.92303 3.93606,8.71998 6.31641,7.36133 0.92978,-0.5307 0.49805,-1.02148 0.49805,-1.02148 0,0 -2.02927,-4.13891 -5.93946,-6.92774 -1.39023,-0.99155 -2.89303,-2.17187 -3.33984,-2.62109 -1.73295,-1.74228 -1.73006,-4.38829 0.006,-4.75 0.94202,-0.19636 2.14271,0.0816 3.11523,0.7207 0.57175,0.37573 0.70748,0.36605 0.89063,-0.0625 0.3642,-0.85211 -2.04498,-1.76758 -3.84961,-1.76758 z m -20.02149,13.9336 c -0.0685,0.004 -0.13675,0.0245 -0.20898,0.0547 -0.35709,0.14921 -0.20484,0.64635 0.69141,2.23829 0.63361,1.12551 1.28891,2.3869 1.45507,2.80273 0.34121,0.85388 0.4125,0.89899 1.13868,0.73828 0.42638,-0.0944 0.30161,-0.53468 -0.69336,-2.42187 -1.44214,-2.73545 -1.90317,-3.44044 -2.38282,-3.41211 z m -9.7832,1.48242 c -0.2428,-0.0157 -0.41848,0.0917 -0.51367,0.31445 -0.10737,0.25108 -0.747,0.91355 -1.41992,1.47266 -1.0697,0.88877 -2.27285,1.39216 -3.99219,1.66797 -0.39895,0.064 -0.45189,0.16824 -0.29883,0.59179 0.20417,0.56501 0.68408,0.57904 2.61719,0.0781 1.33186,-0.34512 3.00954,-1.60123 3.81055,-2.85547 0.5902,-0.92415 0.5959,-1.0305 0.0625,-1.21289 -0.095,-0.0325 -0.1847,-0.0514 -0.26563,-0.0566 z m 22.50195,0.75 c -0.10167,-0.006 -0.23732,7.3e-4 -0.38281,0.0215 -0.45393,0.0647 -0.46695,0.31153 -0.0918,1.73633 0.2405,0.9132 0.52765,1.69122 0.63672,1.72852 0.10906,0.0373 3.625,0.0547 3.625,0.0547 0,0 4.09282,0.32875 4.20703,-0.3496 0.13633,-0.81022 -0.6196,-0.61601 -3.29296,-0.65235 l -3.80079,-0.0527 -0.34375,-1.16016 c -0.18937,-0.638 -0.35903,-1.2089 -0.37695,-1.26953 -0.009,-0.0303 -0.078,-0.0503 -0.17969,-0.0566 z m 16.41993,-0.75781 c -0.29711,-0.0331 -1.2855,1.65856 -1.69336,2.45312 -0.24289,0.47319 -1.10957,0.6096 -1.83789,0.63477 -1.45218,0.0502 -1.47656,0.0594 -1.39454,0.47461 0.0925,0.4685 0.99441,0.72303 2.11329,0.59765 1.23384,-0.13828 2.21604,-0.76083 2.59375,-1.64453 0.22905,-0.53591 0.50229,-2.48403 0.21875,-2.51562 z"
     sodipodi:nodetypes="ssssccssssssssssssssssscssccscccccssscscccsssssssssscsssccssssccsssccccscsssssssscssscscssssssscssssccccsssssssccssssssssssccsssscsssscssssssscsssssssssssssssssssssssssscsccccssssssssccscssssssss" /></g></svg>
