<?xml version="1.0" encoding="UTF-8" standalone="no"?>
<!-- Created with Inkscape (http://www.inkscape.org/) -->

<svg
   width="247.1729mm"
   height="197.73831mm"
   viewBox="0 0 934.1968 747.35742"
   version="1.1"
   id="svg1"
   xml:space="preserve"
   xmlns="http://www.w3.org/2000/svg"
   xmlns:svg="http://www.w3.org/2000/svg"><defs
     id="defs1" /><g
     id="g120"
     transform="translate(-1582.2797,136.94115)"><g
       id="g6"
       transform="translate(271.45844,-218.39057)"
       style="stroke-width:7.89921;stroke-dasharray:none"><path
         style="fill:none;stroke:#000000;stroke-width:7.89921;stroke-linecap:round;stroke-linejoin:round;stroke-miterlimit:0;stroke-dasharray:none;stroke-opacity:1"
         d="m 312.34978,310.2104 c -66.81408,-16.64049 -64.89459,59.90269 -64.89459,59.90269 -4.28619,69.83962 43.50077,71.31274 43.50077,71.31274 54.45978,2.77341 70.87541,-29.14702 79.15713,-42.78764 8.28172,-13.64062 -0.62087,-102.70665 2.90319,-126.2668 1.38763,-9.277 16.64664,-14.8459 16.64664,-14.8459"
         id="path1" /><path
         style="fill:none;stroke:#000000;stroke-width:7.89921;stroke-linecap:round;stroke-linejoin:round;stroke-miterlimit:0;stroke-dasharray:none;stroke-opacity:1"
         d="m 288.10345,465.67216 c -46.89592,14.87559 -38.50887,77.01775 -38.50887,77.01775 -0.75639,44.62676 29.55261,64.2691 48.13609,62.39864 69.53064,-6.99839 77.37432,-43.35892 77.37432,-70.95617 0,-48.40869 -36.3695,-60.61582 -36.3695,-60.61582 -29.75117,-11.09366 -50.63204,-7.8444 -50.63204,-7.8444 z"
         id="path2" /><path
         style="fill:none;stroke:#000000;stroke-width:7.89921;stroke-linecap:round;stroke-linejoin:round;stroke-miterlimit:0;stroke-dasharray:none;stroke-opacity:1"
         d="m 291.20853,465.42938 c 0,0 8.06811,-12.10217 -0.50426,-24.20434"
         id="path3" /><path
         style="fill:none;stroke:#000000;stroke-width:7.89921;stroke-linecap:round;stroke-linejoin:round;stroke-miterlimit:0;stroke-dasharray:none;stroke-opacity:1"
         d="m 291.20853,465.42938 c 0,0 8.06811,-12.10217 -0.50426,-24.20434"
         id="path41" /><path
         style="fill:none;stroke:#000000;stroke-width:7.89921;stroke-linecap:round;stroke-linejoin:round;stroke-miterlimit:0;stroke-dasharray:none;stroke-opacity:1"
         d="m 291.20853,465.42938 c 0,0 8.06811,-12.10217 -0.50426,-24.20434"
         id="path42" /></g><path
       style="fill:none;stroke:#000000;stroke-width:7.91811;stroke-linecap:round;stroke-linejoin:round;stroke-miterlimit:0;stroke-dasharray:none;stroke-opacity:1"
       d="m 569.18911,386.69798 c 0,0 -2.31853,21.95104 1.70993,24.01984 l 536.13156,-0.76823"
       id="path40" /><g
       id="g119"
       transform="matrix(1.3671123,0,0,1.8243302,281.89207,-330.01841)"
       style="display:inline"><g
         id="g118"
         transform="matrix(0.63922499,0,0,0.63922499,150.64175,104.76747)"
         style="stroke-width:2.77304;stroke-dasharray:none"><path
           style="fill:none;fill-opacity:1;stroke:#000000;stroke-width:2.77304;stroke-linecap:round;stroke-linejoin:round;stroke-miterlimit:0;stroke-dasharray:none"
           d="m 489.99999,250.69177 v 38.61647"
           id="path108" /><path
           style="fill:none;fill-opacity:1;stroke:#000000;stroke-width:2.77304;stroke-linecap:round;stroke-linejoin:round;stroke-miterlimit:0;stroke-dasharray:none"
           d="M 509.99999,250.70795 H 490.7571"
           id="path109" /><path
           style="fill:none;fill-opacity:1;stroke:#000000;stroke-width:2.77304;stroke-linecap:round;stroke-linejoin:round;stroke-miterlimit:0;stroke-dasharray:none"
           d="M 509.52266,289.52972 H 490.02062"
           id="path110" /><path
           style="fill:none;fill-opacity:1;stroke:#000000;stroke-width:2.77304;stroke-linecap:round;stroke-linejoin:round;stroke-miterlimit:0;stroke-dasharray:none"
           d="M 504.99999,270.44589 H 489.84543"
           id="path111" /><g
           id="g113"
           transform="matrix(0.60422705,0,0,0.49219252,167.75529,60.872613)"
           style="stroke-width:5.08498;stroke-dasharray:none"><path
             style="fill:none;fill-opacity:1;stroke:#000000;stroke-width:5.08498;stroke-linecap:round;stroke-linejoin:round;stroke-miterlimit:0;stroke-dasharray:none"
             d="m 594.99999,385.00001 c 0,0 -24.99999,10 -19.99999,25 5,15 25.99999,20 19.99999,40"
             id="path112" /><path
             style="fill:none;fill-opacity:1;stroke:#000000;stroke-width:5.08498;stroke-linecap:round;stroke-linejoin:round;stroke-miterlimit:0;stroke-dasharray:none"
             d="m 591.99999,455.00001 c -6.61838,10.14817 -17,10 -17,10"
             id="path113" /></g><g
           id="g115"
           transform="matrix(0.48770422,0,0,0.48770422,382.45658,62.925762)"
           style="stroke-width:5.68591;stroke-dasharray:none"><path
             style="fill:none;fill-opacity:1;stroke:#000000;stroke-width:5.68591;stroke-linecap:round;stroke-linejoin:round;stroke-miterlimit:0;stroke-dasharray:none"
             d="m 339.99999,385.12972 v 79.87029"
             id="path114" /><path
             style="fill:none;fill-opacity:1;stroke:#000000;stroke-width:5.68591;stroke-linecap:round;stroke-linejoin:round;stroke-miterlimit:0;stroke-dasharray:none"
             d="M 369.30657,384.18484 H 310.6934"
             id="path115" /></g><g
           id="g117"
           style="stroke-width:2.77304;stroke-dasharray:none"><path
             style="fill:none;fill-opacity:1;stroke:#000000;stroke-width:2.77304;stroke-linecap:round;stroke-linejoin:round;stroke-miterlimit:0;stroke-dasharray:none"
             d="m 569.99999,250 v 38.87923"
             id="path116" /><path
             style="fill:none;fill-opacity:1;stroke:#000000;stroke-width:2.7926;stroke-linecap:round;stroke-linejoin:round;stroke-miterlimit:0;stroke-dasharray:none"
             id="path117"
             d="m -630.47549,116.05581 a 17.373123,19.210463 0 0 1 -21.30478,8.31512 17.373123,19.210463 0 0 1 -10.71931,-21.99146 17.373123,19.210463 0 0 1 17.99447,-15.106481"
             transform="matrix(-0.82463077,-0.56567136,0.42048847,-0.90729788,0,0)" /></g></g><path
         style="fill:#000000;fill-opacity:1;stroke:#000000;stroke-width:0.755906;stroke-linecap:round;stroke-linejoin:round;stroke-miterlimit:0;stroke-dasharray:none"
         d="m 535.01687,275.03336 h 7.56386 v 0 0 l 2.41926,-0.0334"
         id="path119" /><text
         xml:space="preserve"
         style="font-size:31.299px;font-family:Gentleman;-inkscape-font-specification:Gentleman;fill:#fc6736;fill-opacity:1;stroke:#000000;stroke-width:0;stroke-linecap:round;stroke-linejoin:round;stroke-miterlimit:0;stroke-dasharray:none;stroke-opacity:1"
         x="668.15228"
         y="237.27661"
         id="text40"
         transform="scale(0.82057221,1.2186618)"><tspan
           id="tspan40"
           style="font-style:normal;font-variant:normal;font-weight:normal;font-stretch:normal;font-size:31.299px;font-family:'Cambria Math';-inkscape-font-specification:'Cambria Math, Normal';font-variant-ligatures:normal;font-variant-caps:normal;font-variant-numeric:normal;font-variant-east-asian:normal;fill:#000000;fill-opacity:1;stroke:#000000;stroke-width:0;stroke-dasharray:none;stroke-opacity:1"
           x="668.15228"
           y="237.27661">1987</tspan></text></g><path
       style="display:inline;fill:none;fill-opacity:1;stroke:#000000;stroke-width:5.51293;stroke-linecap:round;stroke-linejoin:round;stroke-miterlimit:0;stroke-dasharray:none"
       d="M 665.76761,197.5613 708.06794,77.557464 750.36828,197.5613"
       id="path5" /><path
       style="display:inline;fill:none;fill-opacity:1;stroke:#000000;stroke-width:5.51293;stroke-linecap:round;stroke-linejoin:round;stroke-miterlimit:0;stroke-dasharray:none"
       d="m 708.06794,145.45879 14.76067,52.10251"
       id="path9" /><path
       style="display:inline;fill:none;fill-opacity:1;stroke:#000000;stroke-width:5.51293;stroke-linecap:round;stroke-linejoin:round;stroke-miterlimit:0;stroke-dasharray:none"
       d="M 785.61858,77.043584 V 197.5613"
       id="path10" /><path
       style="display:inline;fill:none;fill-opacity:1;stroke:#000000;stroke-width:5.51293;stroke-linecap:round;stroke-linejoin:round;stroke-miterlimit:0;stroke-dasharray:none"
       d="M 813.81879,197.5613 V 77.043584 l 28.20023,45.781436"
       id="path11" /><path
       style="display:inline;fill:none;fill-opacity:1;stroke:#000000;stroke-width:5.51293;stroke-linecap:round;stroke-linejoin:round;stroke-miterlimit:0;stroke-dasharray:none"
       d="M 884.3193,77.300844 V 197.81859 l -28.20017,-45.78148"
       id="path12" /><path
       style="display:inline;fill:none;fill-opacity:1;stroke:#000000;stroke-width:5.11736;stroke-linecap:round;stroke-linejoin:round;stroke-miterlimit:0;stroke-dasharray:none"
       d="M 665.01437,378.57641 V 331.7798 c 0,0 42.84965,-3.58672 42.84966,-35.12735 0,-28.98217 -42.84966,-36.55522 -42.84966,-36.55522"
       id="path13" /><g
       id="g33"
       style="display:inline;stroke-width:3.77953;stroke-dasharray:none"
       transform="matrix(1.2676052,0,0,1.449109,316.42293,-295.25924)"><path
         style="fill:none;fill-opacity:1;stroke:#000000;stroke-width:3.77953;stroke-linecap:round;stroke-linejoin:round;stroke-miterlimit:0;stroke-dasharray:none"
         d="m 339.99999,385.12972 v 79.87029"
         id="path14" /><path
         style="fill:none;fill-opacity:1;stroke:#000000;stroke-width:3.77953;stroke-linecap:round;stroke-linejoin:round;stroke-miterlimit:0;stroke-dasharray:none"
         d="M 369.30657,384.18484 H 310.6934"
         id="path15" /></g><path
       style="display:inline;fill:none;fill-opacity:1;stroke:#000000;stroke-width:5.11736;stroke-linecap:round;stroke-linejoin:round;stroke-miterlimit:0;stroke-dasharray:none"
       d="M 798.18277,261.46642 V 377.20718"
       id="path16" /><path
       style="display:inline;fill:none;fill-opacity:1;stroke:#000000;stroke-width:5.11736;stroke-linecap:round;stroke-linejoin:round;stroke-miterlimit:0;stroke-dasharray:none"
       d="m 921.8143,379.26415 38.0281,-115.24721 38.02823,115.24721"
       id="path18" /><path
       style="display:inline;fill:none;fill-opacity:1;stroke:#000000;stroke-width:5.11736;stroke-linecap:round;stroke-linejoin:round;stroke-miterlimit:0;stroke-dasharray:none"
       d="m 959.8424,329.22682 13.2699,50.03733"
       id="path19" /><path
       style="display:inline;fill:none;fill-opacity:1;stroke:#000000;stroke-width:5.12248;stroke-linecap:round;stroke-linejoin:round;stroke-miterlimit:0;stroke-dasharray:none"
       d="m 1012.3382,262.6477 v 115.92871 h 38.0281"
       id="path20" /><g
       id="g24"
       transform="matrix(1.2676052,0,0,1.449109,335.43701,-295.25924)"
       style="display:inline;stroke-width:3.77953;stroke-dasharray:none"><path
         style="fill:none;fill-opacity:1;stroke:#000000;stroke-width:3.77953;stroke-linecap:round;stroke-linejoin:round;stroke-miterlimit:0;stroke-dasharray:none"
         d="m 594.99999,385.00001 c 0,0 -24.99999,10 -19.99999,25 5,15 25.99999,20 19.99999,40"
         id="path22" /><path
         style="fill:none;fill-opacity:1;stroke:#000000;stroke-width:3.77953;stroke-linecap:round;stroke-linejoin:round;stroke-miterlimit:0;stroke-dasharray:none"
         d="m 591.99999,455.00001 c -6.61838,10.14817 -17,10 -17,10"
         id="path23" /></g><path
       style="fill:none;fill-opacity:1;stroke:#000000;stroke-width:5.12248;stroke-linecap:round;stroke-linejoin:round;stroke-miterlimit:0;stroke-dasharray:none"
       id="path26"
       d="m 898.81453,370.42699 a 57.964357,50.704218 89.999961 0 1 -65.6594,-6.92875 57.964357,50.704218 89.999961 0 1 -4.15019,-75.23056 57.964357,50.704218 89.999961 0 1 64.37774,-16.3038" /><g
       id="g17"
       transform="translate(1498.0375,-279.09327)"
       style="fill:none;fill-opacity:1;stroke:#eff1f1;stroke-width:7.89921;stroke-dasharray:none;stroke-opacity:1"><path
         style="fill:none;fill-opacity:1;stroke:#eff1f1;stroke-width:7.89921;stroke-linecap:round;stroke-linejoin:round;stroke-miterlimit:0;stroke-dasharray:none;stroke-opacity:1"
         d="m 312.34978,310.2104 c -66.81408,-16.64049 -64.89459,59.90269 -64.89459,59.90269 -4.28619,69.83962 43.50077,71.31274 43.50077,71.31274 54.45978,2.77341 70.87541,-29.14702 79.15713,-42.78764 8.28172,-13.64062 -0.62087,-102.70665 2.90319,-126.2668 1.38763,-9.277 16.64664,-14.8459 16.64664,-14.8459"
         id="path4" /><path
         style="fill:none;fill-opacity:1;stroke:#eff1f1;stroke-width:7.89921;stroke-linecap:round;stroke-linejoin:round;stroke-miterlimit:0;stroke-dasharray:none;stroke-opacity:1"
         d="m 288.10345,465.67216 c -46.89592,14.87559 -38.50887,77.01775 -38.50887,77.01775 -0.75639,44.62676 29.55261,64.2691 48.13609,62.39864 69.53064,-6.99839 77.37432,-43.35892 77.37432,-70.95617 0,-48.40869 -36.3695,-60.61582 -36.3695,-60.61582 -29.75117,-11.09366 -50.63204,-7.8444 -50.63204,-7.8444 z"
         id="path6" /><path
         style="fill:none;fill-opacity:1;stroke:#eff1f1;stroke-width:7.89921;stroke-linecap:round;stroke-linejoin:round;stroke-miterlimit:0;stroke-dasharray:none;stroke-opacity:1"
         d="m 291.20853,465.42938 c 0,0 8.06811,-12.10217 -0.50426,-24.20434"
         id="path7" /><path
         style="fill:none;fill-opacity:1;stroke:#eff1f1;stroke-width:7.89921;stroke-linecap:round;stroke-linejoin:round;stroke-miterlimit:0;stroke-dasharray:none;stroke-opacity:1"
         d="m 291.20853,465.42938 c 0,0 8.06811,-12.10217 -0.50426,-24.20434"
         id="path8" /><path
         style="fill:none;fill-opacity:1;stroke:#eff1f1;stroke-width:7.89921;stroke-linecap:round;stroke-linejoin:round;stroke-miterlimit:0;stroke-dasharray:none;stroke-opacity:1"
         d="m 291.20853,465.42938 c 0,0 8.06811,-12.10217 -0.50426,-24.20434"
         id="path17" /></g><path
       style="fill:none;fill-opacity:1;stroke:#eff1f1;stroke-width:7.91811;stroke-linecap:round;stroke-linejoin:round;stroke-miterlimit:0;stroke-dasharray:none;stroke-opacity:1"
       d="m 1795.7682,325.99528 c 0,0 -2.3186,21.95104 1.7099,24.01984 l 536.1315,-0.76823"
       id="path21" /><g
       id="g36"
       transform="matrix(1.3671123,0,0,1.8243302,1508.4711,-390.72111)"
       style="display:inline;fill:none;fill-opacity:1;stroke:#eff1f1;stroke-opacity:1"><g
         id="g35"
         transform="matrix(0.63922499,0,0,0.63922499,150.64175,104.76747)"
         style="fill:none;fill-opacity:1;stroke:#eff1f1;stroke-width:2.77304;stroke-dasharray:none;stroke-opacity:1"><path
           style="fill:none;fill-opacity:1;stroke:#eff1f1;stroke-width:2.77304;stroke-linecap:round;stroke-linejoin:round;stroke-miterlimit:0;stroke-dasharray:none;stroke-opacity:1"
           d="m 489.99999,250.69177 v 38.61647"
           id="path24" /><path
           style="fill:none;fill-opacity:1;stroke:#eff1f1;stroke-width:2.77304;stroke-linecap:round;stroke-linejoin:round;stroke-miterlimit:0;stroke-dasharray:none;stroke-opacity:1"
           d="M 509.99999,250.70795 H 490.7571"
           id="path25" /><path
           style="fill:none;fill-opacity:1;stroke:#eff1f1;stroke-width:2.77304;stroke-linecap:round;stroke-linejoin:round;stroke-miterlimit:0;stroke-dasharray:none;stroke-opacity:1"
           d="M 509.52266,289.52972 H 490.02062"
           id="path27" /><path
           style="fill:none;fill-opacity:1;stroke:#eff1f1;stroke-width:2.77304;stroke-linecap:round;stroke-linejoin:round;stroke-miterlimit:0;stroke-dasharray:none;stroke-opacity:1"
           d="M 504.99999,270.44589 H 489.84543"
           id="path28" /><g
           id="g30"
           transform="matrix(0.60422705,0,0,0.49219252,167.75529,60.872613)"
           style="fill:none;fill-opacity:1;stroke:#eff1f1;stroke-width:5.08498;stroke-dasharray:none;stroke-opacity:1"><path
             style="fill:none;fill-opacity:1;stroke:#eff1f1;stroke-width:5.08498;stroke-linecap:round;stroke-linejoin:round;stroke-miterlimit:0;stroke-dasharray:none;stroke-opacity:1"
             d="m 594.99999,385.00001 c 0,0 -24.99999,10 -19.99999,25 5,15 25.99999,20 19.99999,40"
             id="path29" /><path
             style="fill:none;fill-opacity:1;stroke:#eff1f1;stroke-width:5.08498;stroke-linecap:round;stroke-linejoin:round;stroke-miterlimit:0;stroke-dasharray:none;stroke-opacity:1"
             d="m 591.99999,455.00001 c -6.61838,10.14817 -17,10 -17,10"
             id="path30" /></g><g
           id="g32"
           transform="matrix(0.48770422,0,0,0.48770422,382.45658,62.925762)"
           style="fill:none;fill-opacity:1;stroke:#eff1f1;stroke-width:5.68591;stroke-dasharray:none;stroke-opacity:1"><path
             style="fill:none;fill-opacity:1;stroke:#eff1f1;stroke-width:5.68591;stroke-linecap:round;stroke-linejoin:round;stroke-miterlimit:0;stroke-dasharray:none;stroke-opacity:1"
             d="m 339.99999,385.12972 v 79.87029"
             id="path31" /><path
             style="fill:none;fill-opacity:1;stroke:#eff1f1;stroke-width:5.68591;stroke-linecap:round;stroke-linejoin:round;stroke-miterlimit:0;stroke-dasharray:none;stroke-opacity:1"
             d="M 369.30657,384.18484 H 310.6934"
             id="path32" /></g><g
           id="g34"
           style="fill:none;fill-opacity:1;stroke:#eff1f1;stroke-width:2.77304;stroke-dasharray:none;stroke-opacity:1"><path
             style="fill:none;fill-opacity:1;stroke:#eff1f1;stroke-width:2.77304;stroke-linecap:round;stroke-linejoin:round;stroke-miterlimit:0;stroke-dasharray:none;stroke-opacity:1"
             d="m 569.99999,250 v 38.87923"
             id="path33" /><path
             style="fill:none;fill-opacity:1;stroke:#eff1f1;stroke-width:2.7926;stroke-linecap:round;stroke-linejoin:round;stroke-miterlimit:0;stroke-dasharray:none;stroke-opacity:1"
             id="path34"
             d="m -630.47549,116.05581 a 17.373123,19.210463 0 0 1 -21.30478,8.31512 17.373123,19.210463 0 0 1 -10.71931,-21.99146 17.373123,19.210463 0 0 1 17.99447,-15.106481"
             transform="matrix(-0.82463077,-0.56567136,0.42048847,-0.90729788,0,0)" /></g></g><path
         style="fill:none;fill-opacity:1;stroke:#eff1f1;stroke-width:0.755906;stroke-linecap:round;stroke-linejoin:round;stroke-miterlimit:0;stroke-dasharray:none;stroke-opacity:1"
         d="m 535.01687,275.03336 h 7.56386 v 0 0 l 2.41926,-0.0334"
         id="path35" /><text
         xml:space="preserve"
         style="font-size:31.299px;font-family:Gentleman;-inkscape-font-specification:Gentleman;fill:none;fill-opacity:1;stroke:#eff1f1;stroke-width:0;stroke-linecap:round;stroke-linejoin:round;stroke-miterlimit:0;stroke-dasharray:none;stroke-opacity:1"
         x="668.15228"
         y="237.27661"
         id="text35"
         transform="scale(0.82057221,1.2186618)"><tspan
           id="tspan35"
           style="font-style:normal;font-variant:normal;font-weight:normal;font-stretch:normal;font-size:31.299px;font-family:'Cambria Math';-inkscape-font-specification:'Cambria Math, Normal';font-variant-ligatures:normal;font-variant-caps:normal;font-variant-numeric:normal;font-variant-east-asian:normal;fill:#f1f2f1;fill-opacity:1;stroke:#edf1f1;stroke-width:0;stroke-dasharray:none;stroke-opacity:1"
           x="668.15228"
           y="237.27661">1987</tspan></text></g><path
       style="display:inline;fill:none;fill-opacity:1;stroke:#eff1f1;stroke-width:5.51293;stroke-linecap:round;stroke-linejoin:round;stroke-miterlimit:0;stroke-dasharray:none;stroke-opacity:1"
       d="M 1892.3467,136.8586 1934.647,16.854764 1976.9473,136.8586"
       id="path36" /><path
       style="display:inline;fill:none;fill-opacity:1;stroke:#eff1f1;stroke-width:5.51293;stroke-linecap:round;stroke-linejoin:round;stroke-miterlimit:0;stroke-dasharray:none;stroke-opacity:1"
       d="m 1934.647,84.75609 14.7607,52.10251"
       id="path37" /><path
       style="display:inline;fill:none;fill-opacity:1;stroke:#eff1f1;stroke-width:5.51293;stroke-linecap:round;stroke-linejoin:round;stroke-miterlimit:0;stroke-dasharray:none;stroke-opacity:1"
       d="M 2012.1976,16.340884 V 136.8586"
       id="path38" /><path
       style="display:inline;fill:none;fill-opacity:1;stroke:#eff1f1;stroke-width:5.51293;stroke-linecap:round;stroke-linejoin:round;stroke-miterlimit:0;stroke-dasharray:none;stroke-opacity:1"
       d="M 2040.3978,136.8586 V 16.340884 l 28.2003,45.781436"
       id="path39" /><path
       style="display:inline;fill:none;fill-opacity:1;stroke:#eff1f1;stroke-width:5.51293;stroke-linecap:round;stroke-linejoin:round;stroke-miterlimit:0;stroke-dasharray:none;stroke-opacity:1"
       d="M 2110.8983,16.598144 V 137.11589 l -28.2001,-45.78148"
       id="path43" /><path
       style="display:inline;fill:none;fill-opacity:1;stroke:#eff1f1;stroke-width:5.11736;stroke-linecap:round;stroke-linejoin:round;stroke-miterlimit:0;stroke-dasharray:none;stroke-opacity:1"
       d="M 1891.5934,317.87371 V 271.0771 c 0,0 42.8497,-3.58672 42.8497,-35.12735 0,-28.98217 -42.8497,-36.55522 -42.8497,-36.55522"
       id="path44" /><g
       id="g46"
       style="display:inline;fill:none;fill-opacity:1;stroke:#eff1f1;stroke-width:3.77953;stroke-dasharray:none;stroke-opacity:1"
       transform="matrix(1.2676052,0,0,1.449109,1543.002,-355.96194)"><path
         style="fill:none;fill-opacity:1;stroke:#eff1f1;stroke-width:3.77953;stroke-linecap:round;stroke-linejoin:round;stroke-miterlimit:0;stroke-dasharray:none;stroke-opacity:1"
         d="m 339.99999,385.12972 v 79.87029"
         id="path45" /><path
         style="fill:none;fill-opacity:1;stroke:#eff1f1;stroke-width:3.77953;stroke-linecap:round;stroke-linejoin:round;stroke-miterlimit:0;stroke-dasharray:none;stroke-opacity:1"
         d="M 369.30657,384.18484 H 310.6934"
         id="path46" /></g><path
       style="display:inline;fill:none;fill-opacity:1;stroke:#eff1f1;stroke-width:5.11736;stroke-linecap:round;stroke-linejoin:round;stroke-miterlimit:0;stroke-dasharray:none;stroke-opacity:1"
       d="M 2024.7618,200.76372 V 316.50448"
       id="path47" /><path
       style="display:inline;fill:none;fill-opacity:1;stroke:#eff1f1;stroke-width:5.11736;stroke-linecap:round;stroke-linejoin:round;stroke-miterlimit:0;stroke-dasharray:none;stroke-opacity:1"
       d="m 2148.3933,318.56145 38.0281,-115.24721 38.0283,115.24721"
       id="path48" /><path
       style="display:inline;fill:none;fill-opacity:1;stroke:#eff1f1;stroke-width:5.11736;stroke-linecap:round;stroke-linejoin:round;stroke-miterlimit:0;stroke-dasharray:none;stroke-opacity:1"
       d="m 2186.4214,268.52412 13.2699,50.03733"
       id="path49" /><path
       style="display:inline;fill:none;fill-opacity:1;stroke:#eff1f1;stroke-width:5.12248;stroke-linecap:round;stroke-linejoin:round;stroke-miterlimit:0;stroke-dasharray:none;stroke-opacity:1"
       d="m 2238.9172,201.945 v 115.92871 h 38.0281"
       id="path50" /><g
       id="g52"
       transform="matrix(1.2676052,0,0,1.449109,1562.0161,-355.96194)"
       style="display:inline;fill:none;fill-opacity:1;stroke:#eff1f1;stroke-width:3.77953;stroke-dasharray:none;stroke-opacity:1"><path
         style="fill:none;fill-opacity:1;stroke:#eff1f1;stroke-width:3.77953;stroke-linecap:round;stroke-linejoin:round;stroke-miterlimit:0;stroke-dasharray:none;stroke-opacity:1"
         d="m 594.99999,385.00001 c 0,0 -24.99999,10 -19.99999,25 5,15 25.99999,20 19.99999,40"
         id="path51" /><path
         style="fill:none;fill-opacity:1;stroke:#eff1f1;stroke-width:3.77953;stroke-linecap:round;stroke-linejoin:round;stroke-miterlimit:0;stroke-dasharray:none;stroke-opacity:1"
         d="m 591.99999,455.00001 c -6.61838,10.14817 -17,10 -17,10"
         id="path52" /></g><path
       style="fill:none;fill-opacity:1;stroke:#eff1f1;stroke-width:5.12248;stroke-linecap:round;stroke-linejoin:round;stroke-miterlimit:0;stroke-dasharray:none;stroke-opacity:1"
       id="path53"
       d="m 2125.3936,309.72429 a 57.964357,50.704218 89.999961 0 1 -65.6594,-6.92875 57.964357,50.704218 89.999961 0 1 -4.1502,-75.23056 57.964357,50.704218 89.999961 0 1 64.3777,-16.3038" /></g></svg>
